<svg xmlns="http://www.w3.org/2000/svg" width="96" height="96" viewBox="0 0 96 96">
  <circle cx="48" cy="48" r="45" fill="#fff6dc" stroke="#e7d3ad" stroke-width="3"/>

  <path transform="translate(62 38) rotate(50) scale(1.3)" d="M0 0 Q-9 -10 0 -24 Q9 -10 0 0Z" fill="#6fae52" stroke="#3f7a2a" stroke-width="2" stroke-linejoin="round"/>
  <circle cx="36" cy="60" r="14" fill="#4f5fb0" stroke="#2f3b7a" stroke-width="2.5"/><path d="M32 51 l4 3 4 -3" stroke="#2f3b7a" stroke-width="2" fill="none"/><circle cx="60" cy="62" r="13" fill="#4f5fb0" stroke="#2f3b7a" stroke-width="2.5"/><path d="M56 54 l4 3 4 -3" stroke="#2f3b7a" stroke-width="2" fill="none"/><circle cx="47" cy="44" r="13" fill="#4f5fb0" stroke="#2f3b7a" stroke-width="2.5"/><path d="M43 36 l4 3 4 -3" stroke="#2f3b7a" stroke-width="2" fill="none"/>
  <ellipse cx="32" cy="55" rx="4" ry="2.5" transform="rotate(-30 32 55)" fill="#ffffff" opacity="0.7"/><ellipse cx="56" cy="57" rx="4" ry="2.5" transform="rotate(-30 56 57)" fill="#ffffff" opacity="0.7"/><ellipse cx="43" cy="39" rx="4" ry="2.5" transform="rotate(-30 43 39)" fill="#ffffff" opacity="0.7"/>
</svg>
