<svg xmlns="http://www.w3.org/2000/svg" width="96" height="96" viewBox="0 0 96 96">
  <!-- まとめて収穫：野菜がいっぱいのカゴ -->
  <circle cx="48" cy="48" r="45" fill="#fff6dc"/>
  <path d="M24 46 Q48 10 72 46" fill="none" stroke="#a0703f" stroke-width="5"/>
  <!-- 野菜 -->
  <path d="M34 42 L28 22" stroke="#5f9e3b" stroke-width="4" stroke-linecap="round"/>
  <path d="M30 44 L40 24 L44 46Z" fill="#ee8a2a" stroke="#c46a1a" stroke-width="2"/>
  <circle cx="56" cy="40" r="10" fill="#e5533d" stroke="#b83a28" stroke-width="2"/>
  <path d="M52 30 l4 3 4 -3" stroke="#5f9e3b" stroke-width="3" fill="none" stroke-linecap="round"/>
  <ellipse cx="68" cy="44" rx="6" ry="11" fill="#f2c94c" stroke="#c99a2e" stroke-width="2" transform="rotate(20 68 44)"/>
  <circle cx="44" cy="44" r="7" fill="#f3efe3" stroke="#b9ae98" stroke-width="2"/>
  <!-- カゴ -->
  <path d="M18 46 H78 L71 78 Q70 82 65 82 H31 Q26 82 25 78Z" fill="#c9924f" stroke="#8b5e3c" stroke-width="3"/>
  <g stroke="#8b5e3c" stroke-width="2.5" opacity="0.7">
    <path d="M21 56 H75"/><path d="M23 66 H73"/>
    <path d="M36 47 V81"/><path d="M48 47 V81"/><path d="M60 47 V81"/>
  </g>
  <rect x="16" y="43" width="64" height="7" rx="3.5" fill="#a0703f"/>
  <path d="M82 18 l2.5 6 6 2.5 -6 2.5 -2.5 6 -2.5 -6 -6 -2.5 6 -2.5Z" fill="#ffd84a"/>
</svg>
